<?xml version="1.0" encoding="iso-8859-1"?>
<!DOCTYPE svg PUBLIC "-//W3C//DTD SVG 1.1//EN" "http://www.w3.org/Graphics/SVG/1.1/DTD/svg11.dtd">
<svg  version="1.1" xmlns="http://www.w3.org/2000/svg" xmlns:xlink="http://www.w3.org/1999/xlink" x="0px" y="0px" width="512px"
	 height="512px" viewBox="0 0 512 512" enable-background="new 0 0 512 512" xml:space="preserve"><g id="3e91140ac1bfb9903b91c1b0ca088119"><path display="inline" d="M28.346,170.892c-16.568,0-27.846-11.981-27.846-27.837c0-16.218,11.636-27.845,27.846-27.845
		c16.917,0,28.186,11.627,28.186,27.845C56.532,159.971,44.555,170.892,28.346,170.892z M54.773,196.62v196.287H2.617V196.62H54.773
		z M318.374,254.063c0,94.444-47.928,142.729-115.237,142.729c-71.543,0-112.064-59.916-112.064-138.5
		c0-81.058,44.758-140.612,115.583-140.612C281.725,117.679,318.374,181.82,318.374,254.063z M145.695,257.23
		c0,53.213,20.797,96.911,59.2,96.911c38.771,0,58.855-43.345,58.855-97.967c0-49.695-18.68-95.858-58.502-95.858
		C164.375,160.316,145.695,207.545,145.695,257.23z M356.44,337.582c14.094,8.458,36.649,15.149,58.498,15.149
		c28.898,0,44.052-13.744,44.052-33.829c0-19.388-13.037-31.015-42.995-44.052c-40.878-17.62-66.249-42.995-66.249-78.23
		c0-44.409,34.881-78.592,93.384-78.592c25.725,0,45.461,5.988,58.148,12.338l-10.925,42.646
		c-9.515-4.936-26.082-11.635-48.276-11.635c-27.487,0-39.826,14.804-39.826,29.958c0,19.378,13.395,28.195,46.521,43.349
		c43.345,19.379,62.728,44.396,62.728,79.993c0,47.22-35.593,81.753-98.678,81.753c-26.781,0-53.92-7.402-66.599-15.154
		L356.44,337.582z"></path></g></svg>