<?xml version="1.0" encoding="iso-8859-1"?>
<!DOCTYPE svg PUBLIC "-//W3C//DTD SVG 1.1//EN" "http://www.w3.org/Graphics/SVG/1.1/DTD/svg11.dtd">
<svg  version="1.1" xmlns="http://www.w3.org/2000/svg" xmlns:xlink="http://www.w3.org/1999/xlink" x="0px" y="0px" width="512px"
	 height="512px" viewBox="0 0 512 512" enable-background="new 0 0 512 512" xml:space="preserve"><g id="5151e0c8492e5103c096af88a51e96d3"><path display="inline" d="M15.079,322.648c-4.059,0-7.502,1.442-10.338,4.379c-2.836,2.915-4.241,6.441-4.241,10.608
		c0,4.059,1.405,7.572,4.241,10.533s6.279,4.449,10.338,4.449c4.163,0,7.706-1.488,10.621-4.449
		c2.924-2.961,4.375-6.475,4.375-10.533c0-4.067-1.451-7.594-4.375-10.551C22.785,324.112,19.242,322.648,15.079,322.648z
		 M193.558,293.331c0,13.166,0.458,22.501,1.339,27.962h-0.52c-1.322-2.55-3.913-6.795-7.71-12.717L91.454,159.382H62.523v190.185
		h22.29V212.157c0-13.341-0.35-22.057-1.053-26.115h0.803c1.676,4.333,3.655,8.3,5.955,11.938l98.145,151.586h27.047V159.382
		h-22.152V293.331z M280.096,262.957h68.694v-20.156h-68.694v-63.263h74.146v-20.156h-96.419v190.185h100.789V329.41h-78.517
		V262.957z M379.546,179.538h54.884v170.028h22.286V179.538H511.5v-20.156H379.546V179.538z"></path></g></svg>