<svg id="Layer_1" xmlns="http://www.w3.org/2000/svg" xmlns:xlink="http://www.w3.org/1999/xlink" width="452" height="452" viewBox="0 0 452 452"><style>.st0{clip-path:url(#SVGID_2_);fill:url(#SVGID_3_)}.st1{opacity:.66;clip-path:url(#SVGID_5_)}.st2{clip-path:url(#SVGID_9_);fill:url(#SVGID_10_)}.st3{clip-path:url(#SVGID_7_);fill:#b4b4b4}.st4,.st5{fill:#333}.st5{fill-rule:evenodd;clip-rule:evenodd}</style><path class="st4" d="M224.686 368.227a8.381 8.381 0 0 1-4.19-1.121l-13.34-7.893c-1.991-1.114-1.018-1.509-.362-1.738 2.658-.922 3.195-1.135 6.032-2.744.295-.166.687-.103.992.076l10.248 6.085c.371.206.896.206 1.237 0l39.954-23.061c.371-.212.61-.641.61-1.081v-46.108a1.29 1.29 0 0 0-.62-1.101L225.31 266.5a1.255 1.255 0 0 0-1.231 0l-39.927 23.048a1.284 1.284 0 0 0-.634 1.094v46.108c0 .44.246.859.631 1.068l10.944 6.323c5.939 2.97 9.575-.527 9.575-4.041v-45.523c0-.645.517-1.151 1.161-1.151h5.066c.634 0 1.158.507 1.158 1.151V340.1c0 7.926-4.316 12.471-11.831 12.471-2.309 0-4.127 0-9.203-2.501l-10.476-6.031a8.439 8.439 0 0 1-4.191-7.289v-46.108c0-2.995 1.603-5.792 4.191-7.281l39.953-23.088c2.528-1.43 5.889-1.43 8.397 0l39.95 23.088a8.431 8.431 0 0 1 4.197 7.281v46.108a8.458 8.458 0 0 1-4.197 7.289l-39.95 23.066a8.382 8.382 0 0 1-4.207 1.122"/><path class="st4" d="M237.027 336.461c-17.483 0-21.146-8.024-21.146-14.756 0-.641.514-1.152 1.155-1.152h5.165c.577 0 1.058.415 1.148.979.78 5.258 3.105 7.912 13.678 7.912 8.417 0 12-1.904 12-6.369 0-2.575-1.017-4.486-14.097-5.766-10.932-1.082-17.692-3.497-17.692-12.242 0-8.062 6.794-12.869 18.187-12.869 12.799 0 19.132 4.441 19.936 13.974.029.328-.086.644-.306.89a1.174 1.174 0 0 1-.846.367h-5.185a1.15 1.15 0 0 1-1.122-.901c-1.244-5.534-4.271-7.302-12.478-7.302-9.19 0-10.258 3.2-10.258 5.6 0 2.906 1.26 3.752 13.668 5.394 12.278 1.623 18.111 3.921 18.111 12.552.001 8.704-7.257 13.689-19.918 13.689M294.638 288.106c0 4.235-3.464 7.699-7.699 7.699-4.197 0-7.7-3.422-7.7-7.699 0-4.36 3.586-7.702 7.7-7.702 4.156 0 7.699 3.342 7.699 7.702m-14.156-.022c0 3.586 2.892 6.479 6.436 6.479 3.586 0 6.479-2.954 6.479-6.479 0-3.584-2.934-6.436-6.479-6.436-3.504 0-6.436 2.81-6.436 6.436m3.563-4.298h2.977c1.018 0 3.015 0 3.015 2.283 0 1.589-1.019 1.914-1.632 2.118 1.184.081 1.264.855 1.426 1.956.083.69.206 1.874.449 2.279h-1.832c-.043-.405-.328-2.606-.328-2.728-.12-.49-.286-.733-.896-.733h-1.506v3.461h-1.672v-8.636zm1.632 3.789h1.345c1.098 0 1.303-.773 1.303-1.221 0-1.184-.816-1.184-1.264-1.184h-1.384v2.405z"/><path class="st5" d="M100.964 187.833a5.111 5.111 0 0 0-2.558-4.446L56.047 159.01a4.99 4.99 0 0 0-2.332-.674h-.438a5.067 5.067 0 0 0-2.339.674L8.579 183.387a5.135 5.135 0 0 0-2.561 4.446l.093 65.641c0 .913.474 1.762 1.278 2.21a2.457 2.457 0 0 0 2.541 0l25.174-14.415c1.592-.945 2.561-2.613 2.561-4.438v-30.667c0-1.828.968-3.521 2.554-4.429l10.719-6.174a5.085 5.085 0 0 1 2.565-.687c.872 0 1.768.225 2.544.687l10.716 6.174a5.1 5.1 0 0 1 2.558 4.429v30.667c0 1.825.982 3.504 2.564 4.438l25.167 14.415c.79.472 1.776.472 2.558 0a2.556 2.556 0 0 0 1.271-2.21l.083-65.641zM304.781 97.598a2.566 2.566 0 0 0-2.544.028 2.562 2.562 0 0 0-1.263 2.206v65.007c0 .638-.342 1.23-.894 1.55a1.786 1.786 0 0 1-1.791 0l-10.61-6.112a5.113 5.113 0 0 0-5.111.002l-42.376 24.455a5.116 5.116 0 0 0-2.56 4.431v48.92c0 1.829.976 3.517 2.559 4.433l42.373 24.475a5.12 5.12 0 0 0 5.118 0l42.382-24.475a5.123 5.123 0 0 0 2.558-4.433V116.138a5.118 5.118 0 0 0-2.625-4.469l-25.216-14.071zm-3.932 124.414c0 .456-.243.879-.64 1.106l-14.55 8.387a1.282 1.282 0 0 1-1.277 0l-14.549-8.387a1.274 1.274 0 0 1-.64-1.106v-16.8c0-.456.242-.879.639-1.108l14.549-8.404a1.278 1.278 0 0 1 1.28 0l14.549 8.404c.396.229.639.652.639 1.108v16.8zM445.885 204.772a5.12 5.12 0 0 0 2.546-4.424v-11.855c0-1.823-.971-3.51-2.549-4.426l-42.103-24.445a5.114 5.114 0 0 0-5.127-.007l-42.361 24.455a5.118 5.118 0 0 0-2.558 4.431v48.908c0 1.839.988 3.536 2.585 4.445l42.097 23.987a5.112 5.112 0 0 0 5.018.028l25.463-14.153a2.552 2.552 0 0 0 1.314-2.219 2.553 2.553 0 0 0-1.284-2.236l-42.629-24.466a2.557 2.557 0 0 1-1.284-2.22v-15.327c0-.914.486-1.76 1.279-2.216l13.268-7.649a2.555 2.555 0 0 1 2.554 0l13.274 7.649a2.556 2.556 0 0 1 1.28 2.216v12.059a2.558 2.558 0 0 0 3.844 2.213l25.373-14.748z"/><path class="st5" d="M400.591 202.481a.98.98 0 0 1 .982 0l8.131 4.691a.982.982 0 0 1 .491.851v9.389a.985.985 0 0 1-.491.851l-8.131 4.691a.984.984 0 0 1-.982 0l-8.125-4.691a.984.984 0 0 1-.49-.851v-9.389c0-.352.188-.675.49-.851l8.125-4.691z"/><g><defs><path id="SVGID_1_" d="M166.756 159.869l-42.02 24.254a5.072 5.072 0 0 0-2.539 4.395v48.548c0 1.813.967 3.488 2.537 4.396l42.02 24.274a5.085 5.085 0 0 0 5.079 0l42.029-24.274a5.077 5.077 0 0 0 2.538-4.396V188.52a5.073 5.073 0 0 0-2.539-4.397l-42.03-24.254a5.064 5.064 0 0 0-2.538-.68 5.06 5.06 0 0 0-2.537.68"/></defs><clipPath id="SVGID_2_"><use xlink:href="#SVGID_1_" overflow="visible"/></clipPath><linearGradient id="SVGID_3_" gradientUnits="userSpaceOnUse" x1="-71.999" y1="532.999" x2="-70.999" y2="532.999" gradientTransform="matrix(94.2039 0 0 -94.2039 6904.867 50423.484)"><stop offset="0" stop-color="#231f20"/><stop offset=".005" stop-color="#231f20"/><stop offset=".2" stop-color="#393738"/><stop offset=".546" stop-color="#5c5c5e"/><stop offset=".825" stop-color="#717375"/><stop offset="1" stop-color="#797b7d"/></linearGradient><path class="st0" d="M122.197 159.189H216.4v107.456h-94.203z"/></g><g><defs><path id="SVGID_4_" d="M166.766 159.869l-42.03 24.254a5.073 5.073 0 0 0-2.539 4.397v48.546c0 1.813.967 3.488 2.537 4.396l42.031 24.274a5.081 5.081 0 0 0 5.077 0l42.02-24.274a5.077 5.077 0 0 0 2.538-4.396v-48.548a5.073 5.073 0 0 0-2.538-4.395l-42.021-24.254a5.064 5.064 0 0 0-2.538-.68c-.876 0-1.752.226-2.537.68"/></defs><clipPath id="SVGID_5_"><use xlink:href="#SVGID_4_" overflow="visible"/></clipPath><g class="st1"><defs><path id="SVGID_6_" d="M123.182 159.341h91.752V266.41h-91.752z"/></defs><clipPath id="SVGID_7_"><use xlink:href="#SVGID_6_" overflow="visible"/></clipPath><path class="st3" d="M213.648 184.123l-41.843-24.255a5.058 5.058 0 0 0-1.327-.527l-47.296 80.908c.398.479.878.896 1.428 1.214l42.093 24.274a4.978 4.978 0 0 0 4.043.428l44.188-80.914a4.44 4.44 0 0 0-1.286-1.128"/></g></g><g><defs><path id="SVGID_8_" d="M168.99 159.198a5.076 5.076 0 0 0-2.224.671l-41.629 24.022 45.223 82.385a5.061 5.061 0 0 0 1.373-.539l41.93-24.274c1.569-.908 2.337-2.583 2.337-4.396v-.19l-45.36-77.493a5.181 5.181 0 0 0-1.65-.186"/></defs><clipPath id="SVGID_9_"><use xlink:href="#SVGID_8_" overflow="visible"/></clipPath><linearGradient id="SVGID_10_" gradientUnits="userSpaceOnUse" x1="-72" y1="533" x2="-71" y2="533" gradientTransform="matrix(97.1778 0 0 -97.1778 7118.364 52008.516)"><stop offset="0" stop-color="#797b7d"/><stop offset=".175" stop-color="#717375"/><stop offset=".454" stop-color="#5c5c5e"/><stop offset=".8" stop-color="#393738"/><stop offset=".995" stop-color="#231f20"/><stop offset="1" stop-color="#231f20"/></linearGradient><path class="st2" d="M125.137 159.192H216v107.084h-90.863z"/></g></svg>