<?xml version="1.0" encoding="iso-8859-1"?>
<!DOCTYPE svg PUBLIC "-//W3C//DTD SVG 1.1//EN" "http://www.w3.org/Graphics/SVG/1.1/DTD/svg11.dtd">
<svg  version="1.1" xmlns="http://www.w3.org/2000/svg" xmlns:xlink="http://www.w3.org/1999/xlink" x="0px" y="0px" width="512px"
	 height="512px" viewBox="0 0 512 512" enable-background="new 0 0 512 512" xml:space="preserve"><g id="5151e0c8492e5103c096af88a51fdbd5"><path display="inline" fill-rule="evenodd" clip-rule="evenodd" d="M466.578,384.362C314.718,398.435,158.253,430.871,0.5,441.105
		c23.97-24.544,73.148-21.383,117.537-28.369c77.959-12.276,175.958-20.577,263.429-32.429
		C409.689,376.49,446.501,361.229,466.578,384.362z M316.622,441.105c-50.842,5.771-93.858,8.653-137.792,12.159
		c-29.813,2.375-62.249-3.709-81.062,16.21c62.199,16.93,137.901-10.704,202.645-8.109c8.891-7.352,107.751,8.684,149.956-28.369
		C415.77,411.056,366.096,435.487,316.622,441.105z M73.208,335.554c-39.556-49.037,20.198-130.643,52.688-170.215
		c14.438-17.591,28.922-36.154,44.579-52.688c34.295-36.229,39.352-48.505,85.108-68.898c68.99-30.748,96.718,51.133,52.684,93.209
		c-16.896,4.316-17.873,1.056-36.47,0c16.658-16.451,12.916-48.688,20.26-64.839c-0.449-7.66-13.395-2.812-12.155-12.16
		c-65.879,26.793-108.379,75.552-145.897,133.746c-15.806,24.506-33.16,48.854-36.479,89.158c0.449,7.652,13.395,2.812,12.16,12.16
		c4.483,0.124,8.741,0.024,12.833-0.25v-0.087h1.477c65.671-5.095,82.039-59.504,119.428-92.88
		c-25.517-11.469-51.911,24.161-76.999,4.055c21.171-40.125,80.991-26.702,133.738-40.524c4.191,13.224,10.271,8.587,0,20.26
		c55.054-39.864,86.131-159.263,202.644-137.797c34.711,91.205-42.075,178.292-97.268,226.955
		c-39.793,35.089-59.712,61.513-117.532,48.638c-18.575-18.231-16.354-49.728-16.209-52.688c0.91-18.733,13.153-42.15,12.155-60.789
		c-8.941,31.621-61.01,41.61-60.79,68.898C182.053,306.603,147.999,341.442,73.208,335.554z M300.163,278.815
		c52.43,16.547,86.093-42.882,125.637-64.848c23.104-34.832,66.308-84.143,48.634-133.746
		C396.017,96.681,323.774,181.349,300.163,278.815z"></path></g></svg>